<svg id="visual" viewBox="0 0 675 900" width="675" height="900" xmlns="http://www.w3.org/2000/svg" xmlns:xlink="http://www.w3.org/1999/xlink" version="1.1"><rect x="0" y="0" width="675" height="900" fill="#FCAF3C"></rect><defs><linearGradient id="grad1_0" x1="0%" y1="0%" x2="100%" y2="100%"><stop offset="30%" stop-color="#0066ff" stop-opacity="1"></stop><stop offset="70%" stop-color="#0066ff" stop-opacity="1"></stop></linearGradient></defs><defs><linearGradient id="grad1_1" x1="0%" y1="0%" x2="100%" y2="100%"><stop offset="30%" stop-color="#0066ff" stop-opacity="1"></stop><stop offset="70%" stop-color="#f03dbd" stop-opacity="1"></stop></linearGradient></defs><defs><linearGradient id="grad1_2" x1="0%" y1="0%" x2="100%" y2="100%"><stop offset="30%" stop-color="#ff656a" stop-opacity="1"></stop><stop offset="70%" stop-color="#f03dbd" stop-opacity="1"></stop></linearGradient></defs><defs><linearGradient id="grad1_3" x1="0%" y1="0%" x2="100%" y2="100%"><stop offset="30%" stop-color="#ff656a" stop-opacity="1"></stop><stop offset="70%" stop-color="#fcaf3c" stop-opacity="1"></stop></linearGradient></defs><defs><linearGradient id="grad2_0" x1="0%" y1="0%" x2="100%" y2="100%"><stop offset="30%" stop-color="#0066ff" stop-opacity="1"></stop><stop offset="70%" stop-color="#0066ff" stop-opacity="1"></stop></linearGradient></defs><defs><linearGradient id="grad2_1" x1="0%" y1="0%" x2="100%" y2="100%"><stop offset="30%" stop-color="#f03dbd" stop-opacity="1"></stop><stop offset="70%" stop-color="#0066ff" stop-opacity="1"></stop></linearGradient></defs><defs><linearGradient id="grad2_2" x1="0%" y1="0%" x2="100%" y2="100%"><stop offset="30%" stop-color="#f03dbd" stop-opacity="1"></stop><stop offset="70%" stop-color="#ff656a" stop-opacity="1"></stop></linearGradient></defs><defs><linearGradient id="grad2_3" x1="0%" y1="0%" x2="100%" y2="100%"><stop offset="30%" stop-color="#fcaf3c" stop-opacity="1"></stop><stop offset="70%" stop-color="#ff656a" stop-opacity="1"></stop></linearGradient></defs><g transform="translate(675, 0)"><path d="M0 506.3C-66.5 498.8 -133 491.4 -193.7 467.7C-254.5 444 -309.5 404 -356.4 356.4C-403.3 308.8 -442 253.5 -465.6 192.9C-489.3 132.2 -497.8 66.1 -506.2 0L0 0Z" fill="#ff8c4b"></path><path d="M0 379.7C-49.9 374.1 -99.7 368.6 -145.3 350.8C-190.9 333 -232.1 303 -267.3 267.3C-302.4 231.6 -331.5 190.2 -349.2 144.7C-366.9 99.2 -373.3 49.6 -379.7 0L0 0Z" fill="#ff4491"></path><path d="M0 253.1C-33.2 249.4 -66.5 245.7 -96.9 233.9C-127.2 222 -154.8 202 -178.2 178.2C-201.6 154.4 -221 126.8 -232.8 96.4C-244.6 66.1 -248.9 33.1 -253.1 0L0 0Z" fill="#b151e5"></path><path d="M0 126.6C-16.6 124.7 -33.2 122.9 -48.4 116.9C-63.6 111 -77.4 101 -89.1 89.1C-100.8 77.2 -110.5 63.4 -116.4 48.2C-122.3 33.1 -124.4 16.5 -126.6 0L0 0Z" fill="#0066ff"></path></g><g transform="translate(0, 900)"><path d="M0 -506.2C64 -498 128 -489.7 193.7 -467.7C259.5 -445.7 327 -410 354.3 -354.3C381.5 -298.5 368.5 -222.7 387.1 -160.3C405.7 -98 456 -49 506.3 0L0 0Z" fill="#ff8c4b"></path><path d="M0 -379.7C48 -373.5 96 -367.3 145.3 -350.8C194.6 -334.3 245.3 -307.5 265.7 -265.7C286.1 -223.9 276.4 -167 290.3 -120.3C304.3 -73.5 342 -36.7 379.7 0L0 0Z" fill="#ff4491"></path><path d="M0 -253.1C32 -249 64 -244.9 96.9 -233.9C129.7 -222.9 163.5 -205 177.1 -177.1C190.8 -149.3 184.2 -111.4 193.6 -80.2C202.9 -49 228 -24.5 253.1 0L0 0Z" fill="#b151e5"></path><path d="M0 -126.6C16 -124.5 32 -122.4 48.4 -116.9C64.9 -111.4 81.8 -102.5 88.6 -88.6C95.4 -74.6 92.1 -55.7 96.8 -40.1C101.4 -24.5 114 -12.2 126.6 0L0 0Z" fill="#0066ff"></path></g></svg>